# xmcd
#
# Track frame offsets:
#	150
#	3945
#	7270
#	11268
#	17443
#	22070
#	26250
#	30583
#	34823
#	37608
#	43105
#	46863
#	51628
#	54890
#	57705
#	63833
#	67205
#	70440
#	73518
#	78328
#	83570
#	86313
#	90318
#	96128
#	99073
#	106365
#	109543
#	114818
#	117610
#	121133
#	125355
#	129240
#	132958
#	136893
#	148263
#	153540
#	158020
#	161468
#	165138
#	171953
#	175890
#	179228
#	182913
#	187775
#	193510
#	199703
#	203880
#	213550
#	217085
#	223585
#	229475
#	236358
#	241670
#	246680
#	251718
#
# Disc length: 3397 seconds
#
# Revision: 0
# Processed by: cddbd v1.4PL0 Copyright (c) Steve Scherf et al.
# Submitted via: AudioConverter v4.05 Copyright (c) Dennis Rebentrost
#
DISCID=f10d4337
DTITLE=CZERNY - 100 fortschrittliche
DYEAR=1900
DGENRE=
TTITLE0=Czerny No1
TTITLE1=Czerny No2
TTITLE2=Czerny No3
TTITLE3=Czerny No4
TTITLE4=Czerny No5
TTITLE5=Czerny No6
TTITLE6=Czerny No7
TTITLE7=Czerny No8
TTITLE8=Czerny No9
TTITLE9=Czerny No10
TTITLE10=Czerny No11
TTITLE11=Czerny No12
TTITLE12=Czerny No13
TTITLE13=Czerny No14
TTITLE14=Czerny No15
TTITLE15=Czerny No16
TTITLE16=Czerny No17
TTITLE17=Czerny No18
TTITLE18=Czerny No19
TTITLE19=Czerny No20
TTITLE20=Czerny No21
TTITLE21=Czerny No22
TTITLE22=Czerny No23
TTITLE23=Czerny No24
TTITLE24=Czerny No25
TTITLE25=Czerny No26
TTITLE26=Czerny No27
TTITLE27=Czerny No28
TTITLE28=Czerny No29
TTITLE29=Czerny No30
TTITLE30=Czerny No31
TTITLE31=Czerny No32
TTITLE32=Czerny No33
TTITLE33=Czerny No34
TTITLE34=Czerny No35
TTITLE35=Czerny No36
TTITLE36=Czerny No37
TTITLE37=Czerny No38
TTITLE38=Czerny No39
TTITLE39=Czerny No40
TTITLE40=Czerny No41
TTITLE41=Czerny No42
TTITLE42=Czerny No43
TTITLE43=Czerny No44
TTITLE44=Czerny No45
TTITLE45=Czerny No46
TTITLE46=Czerny No47
TTITLE47=Czerny No48
TTITLE48=Czerny No49
TTITLE49=Czerny No50
TTITLE50=Czerny No51
TTITLE51=Czerny No52
TTITLE52=Czerny No53
TTITLE53=Czerny No54
TTITLE54=Czerny No55
EXTD=
EXTT0=
EXTT1=
EXTT2=
EXTT3=
EXTT4=
EXTT5=
EXTT6=
EXTT7=
EXTT8=
EXTT9=
EXTT10=
EXTT11=
EXTT12=
EXTT13=
EXTT14=
EXTT15=
EXTT16=
EXTT17=
EXTT18=
EXTT19=
EXTT20=
EXTT21=
EXTT22=
EXTT23=
EXTT24=
EXTT25=
EXTT26=
EXTT27=
EXTT28=
EXTT29=
EXTT30=
EXTT31=
EXTT32=
EXTT33=
EXTT34=
EXTT35=
EXTT36=
EXTT37=
EXTT38=
EXTT39=
EXTT40=
EXTT41=
EXTT42=
EXTT43=
EXTT44=
EXTT45=
EXTT46=
EXTT47=
EXTT48=
EXTT49=
EXTT50=
EXTT51=
EXTT52=
EXTT53=
EXTT54=
PLAYORDER=
